# xmcd
#
# Track frame offsets:
#	150
#	4809
#	22002
#	38298
#	52927
#	74887
#	95880
#	109967
#	118825
#	138534
#	161161
#	178807
#	192671
#	209384
#	241565
#	256978
#
# Disc length: 3610 seconds
#
# Revision: 0
# Processed by: cddbd v1.5.2PL0 Copyright (c) Steve Scherf et al.
# Submitted via: audiograbber 1.83.01
#
DISCID=ed0e1810
DTITLE=Carpenters - A 25th Anniversary Celebration
DYEAR=1995
DGENRE=Easy Listening
TTITLE0=Without a Song (A Cappella Version)
TTITLE1=Superstar
TTITLE2=Rainy Days and Mondays
TTITLE3=Bless the Beasts and Children
TTITLE4=This Masquerade
TTITLE5=Solitaire
TTITLE6=When I fall in Love
TTITLE7=From this Moment On
TTITLE8=Tryin' to Get the Feeling Again
TTITLE9=When it's Gone
TTITLE10=I Believe You
TTITLE11=Reason to Believe
TTITLE12=Close to You
TTITLE13=Calling Occupants of Interplanetary Craft
TTITLE14=Little Girl blue
TTITLE15=We've Only Just Begun
EXTD=
EXTT0=
EXTT1=
EXTT2=
EXTT3=
EXTT4=
EXTT5=
EXTT6=
EXTT7=
EXTT8=
EXTT9=
EXTT10=
EXTT11=
EXTT12=
EXTT13=
EXTT14=
EXTT15=
PLAYORDER=
